HIERARCHY
ROOT Root
{
	OFFSET 0.00000 0.00000 0.00000
	CHANNELS 6 Xposition Yposition Zposition Zrotation Xrotation Yrotation
	JOINT Hip
	{
		OFFSET 0 0 0	
		CHANNELS 3 Zrotation Xrotation Yrotation
		JOINT Tummy
		{
			OFFSET 0 0.04 0	
			CHANNELS 3 Zrotation Xrotation Yrotation
			JOINT ChestBottom
			{
				OFFSET 0 0.194 0	
				CHANNELS 3 Zrotation Xrotation Yrotation
				JOINT ChestTop
				{
					OFFSET 0 0.166 0	
					CHANNELS 3 Zrotation Xrotation Yrotation
					JOINT LeftCollar
					{
						OFFSET 0 0.1 0	
						CHANNELS 3 Zrotation Xrotation Yrotation
						JOINT LeftUpperArm
						{
							OFFSET 0.156 -0.02 0.03	
							CHANNELS 3 Zrotation Xrotation Yrotation
							JOINT LeftForeArm
							{
								OFFSET 0.035 -0.27 -0.01	
								CHANNELS 3 Zrotation Xrotation Yrotation
								JOINT LeftHand
								{
									OFFSET 0.01 -0.27 0.01	
									CHANNELS 3 Zrotation Xrotation Yrotation
									End Site
									{
										OFFSET 0 -0.15 0
									}
								}
							}
						}
					}
					JOINT RightCollar
					{
						OFFSET 0 0.1 0	
						CHANNELS 3 Zrotation Xrotation Yrotation
						JOINT RightUpperArm
						{
							OFFSET -0.156 -0.02 0.03	
							CHANNELS 3 Zrotation Xrotation Yrotation
							JOINT RightForeArm
							{
								OFFSET -0.035 -0.27 -0.01	
								CHANNELS 3 Zrotation Xrotation Yrotation
								JOINT RightHand
								{
									OFFSET -0.01 -0.27 0.01	
									CHANNELS 3 Zrotation Xrotation Yrotation
									End Site
									{
										OFFSET 0 -0.15 0
									}
								}
							}
						}
					}
					JOINT Neck
					{
						OFFSET 0 0.1 0	
						CHANNELS 3 Zrotation Xrotation Yrotation
						JOINT Head
						{
							OFFSET 0 0.127 0.03	
							CHANNELS 3 Zrotation Xrotation Yrotation
							End Site
							{
								OFFSET 0 0.127 0.03
							}
						}
					}
				}
			}
		}
	}
	JOINT LeftHip
	{
		OFFSET 0 0 0	
		CHANNELS 3 Zrotation Xrotation Yrotation
		JOINT LeftThigh
		{
			OFFSET 0.088 -0.06 0	
			CHANNELS 3 Zrotation Xrotation Yrotation
			JOINT LeftLowerLeg
			{
				OFFSET 0 -0.39 0.02	
				CHANNELS 3 Zrotation Xrotation Yrotation
				JOINT LeftFootTop
				{
					OFFSET 0 -0.43 -0.02	
					CHANNELS 3 Zrotation Xrotation Yrotation
					JOINT LeftFootFront
					{
						OFFSET 0 -0.07 0.085	
						CHANNELS 3 Zrotation Xrotation Yrotation
						End Site
						{
							OFFSET 0 -0.005 0.09
						}
					}
				}
				JOINT LeftHeel
				{
					OFFSET 0 -0.43 -0.02	
					CHANNELS 3 Zrotation Xrotation Yrotation
					End Site
					{
						OFFSET 0 -0.075 -0.05
					}
				}
			}
		}
	}
	JOINT RightHip
	{
		OFFSET 0 0 0	
		CHANNELS 3 Zrotation Xrotation Yrotation
		JOINT RightThigh
		{
			OFFSET -0.088 -0.06 0	
			CHANNELS 3 Zrotation Xrotation Yrotation
			JOINT RightLowerLeg
			{
				OFFSET 0 -0.39 0.02	
				CHANNELS 3 Zrotation Xrotation Yrotation
				JOINT RightFootTop
				{
					OFFSET 0 -0.43 -0.02	
					CHANNELS 3 Zrotation Xrotation Yrotation
					JOINT RightFootFront
					{
						OFFSET 0 -0.07 0.085	
						CHANNELS 3 Zrotation Xrotation Yrotation
						End Site
						{
							OFFSET 0 -0.005 0.09
						}
					}
				}
				JOINT RightHeel
				{
					OFFSET 0 -0.43 -0.02	
					CHANNELS 3 Zrotation Xrotation Yrotation
					End Site
					{
						OFFSET 0 -0.075 -0.05
					}
				}
			}
		}
	}
}
MOTION
Frames: 19
Frame Time: 0.05
0.20978 0.56817 -0.2334 -0 0 -0 -8.2261 5.8621 13.469 2.863 -1.4025 0.27825 2.863 -1.4025 0.27824 2.4044 -1.1791 0.22901 -0 0 -0 0.93742 -6.0668 13.111 -67.059 -53.229 -51.026 46.353 -29.165 -87.561 -0 0 -0 0.37708 -40.469 -11.244 34.32 -30.775 -5.0359 -41.666 -7.0223 0.90068 -3.5051 -2.2019 4.4041 -3.5051 -2.2019 4.4041 -8.2261 5.8621 13.469 79.658 -52.217 66.5 -96.771 32.402 53.27 29.521 9.1865 26.188 -0.0075542 0.00029365 -0.0057672 -0 0 -0 -8.2261 5.8621 13.469 130.71 -86.551 103.18 -58.83 76.489 59.737 -4.3484 -12.36 -11.962 -0.025964 -0.023046 0.008349 -0 0 -0 
0.20969 0.56818 -0.23341 -0 0 -0 -8.2164 5.9297 13.459 2.876 -1.4218 0.22322 2.876 -1.4218 0.22322 2.4154 -1.1951 0.1827 -0 0 -0 1.1806 -6.2845 12.816 -66.228 -52.981 -50.786 47.257 -27.934 -84.086 -0 0 -0 0.43834 -40.026 -10.487 35.88 -32.075 -4.881 -44.857 -3.7242 3.8921 -3.5708 -2.2432 4.6125 -3.5708 -2.2432 4.6125 -8.2164 5.9297 13.459 79.671 -52.165 66.504 -96.684 32.326 53.219 29.495 9.2155 26.093 0.038651 0.024269 -0.0030667 -0 0 -0 -8.2164 5.9297 13.459 130.64 -86.446 103.15 -58.745 76.454 59.571 -4.3623 -12.36 -11.946 -0.0007366 -0.014013 0.0017023 -0 0 -0 
0.20952 0.56817 -0.23347 -0 0 -0 -8.2087 5.9659 13.378 3.0512 -1.4603 0.0082823 3.0512 -1.4603 0.0082809 2.5629 -1.2267 0.0017282 -0 0 -0 1.1964 -6.142 12.929 -64.447 -52.862 -48.342 47.708 -30.089 -77.72 -0 0 -0 0.92235 -39.91 -9.9454 35.887 -31.543 -4.4234 -46.125 -0.97224 6.1137 -3.6459 -2.1935 4.9489 -3.6459 -2.1935 4.9489 -8.2087 5.9659 13.378 79.779 -51.995 66.645 -96.668 32.257 53.17 29.539 9.3604 26.006 0.028489 0.039156 0.0002321 -0 0 -0 -8.2087 5.9659 13.378 129.89 -86.34 102.46 -58.453 76.515 59.22 -4.4063 -12.357 -11.909 0.029776 0.013473 -0.005387 -0 0 -0 
0.20938 0.56815 -0.23352 -0 0 -0 -8.2163 5.9629 13.291 3.2245 -1.4782 -0.1226 3.2245 -1.4782 -0.1226 2.7087 -1.2413 -0.10858 -0 0 -0 1.1753 -5.8627 13.167 -65.104 -53.029 -48.105 48.282 -31.84 -73.824 -0 0 -0 1.4211 -40.019 -9.8323 34.584 -30.311 -3.5074 -46.732 3.0424 6.5418 -3.5248 -2.1574 5.0163 -3.5248 -2.1574 5.0163 -8.2163 5.9629 13.291 79.87 -51.829 66.759 -96.704 32.243 53.115 29.56 9.4877 26 0.040303 0.023076 0.0012962 -0 0 -0 -8.2163 5.9629 13.291 129.29 -86.311 101.88 -58.173 76.607 58.948 -4.4376 -12.344 -11.869 0.032493 0.019534 -0.0091703 -0 0 -0 
0.20935 0.56812 -0.23353 -0 0 -0 -8.2486 5.9394 13.255 3.2901 -1.4531 -0.18239 3.2901 -1.4531 -0.18239 2.7639 -1.2199 -0.15881 -0 0 -0 1.1312 -5.4869 13.604 -67.819 -53.74 -49.506 47.102 -31.753 -75.92 -0 0 -0 1.4697 -40.215 -9.4605 33.374 -29.705 -3.8758 -44.867 1.6997 5.6705 -3.3059 -2.1833 4.9133 -3.3059 -2.1833 4.9133 -8.2486 5.9394 13.255 79.961 -51.801 66.857 -96.778 32.319 53.134 29.579 9.5215 26.069 0.013068 -0.011135 0.0065151 -0 0 -0 -8.2486 5.9394 13.255 129.41 -86.362 101.95 -58.098 76.664 58.94 -4.4461 -12.337 -11.854 0.020141 0.020639 5.8538e-05 -0 0 -0 
0.20942 0.56812 -0.2335 -0 0 -0 -8.2869 5.9047 13.291 3.2309 -1.4334 -0.11623 3.2309 -1.4334 -0.11623 2.714 -1.2037 -0.10307 -0 0 -0 1.1174 -5.3024 13.786 -69.321 -53.986 -51.052 45.937 -29.756 -80.989 -0 0 -0 1.0558 -40.226 -9.456 33.831 -29.428 -5.1933 -44.38 -0.039327 4.3127 -3.1545 -2.1872 4.7166 -3.1545 -2.1872 4.7166 -8.2869 5.9047 13.291 80.009 -51.917 66.893 -96.83 32.406 53.204 29.589 9.4716 26.158 -0.053659 -0.032851 -0.0025331 -0 0 -0 -8.2869 5.9047 13.291 130 -86.456 102.46 -58.245 76.643 59.169 -4.4239 -12.329 -11.869 -0.0048213 -0.004618 -0.00013941 -0 0 -0 
0.20951 0.56813 -0.23345 -0 0 -0 -8.3088 5.8838 13.381 3.0938 -1.4677 0.044639 3.0938 -1.4677 0.04464 2.5986 -1.2331 0.032169 -0 0 -0 1.1822 -5.378 13.813 -69.277 -53.208 -51.848 45.235 -28.184 -87.662 -0 0 -0 0.62982 -40.074 -10.06 34.686 -30.406 -5.4314 -43.602 -2.2394 3.5969 -3.0603 -2.1552 4.5286 -3.0603 -2.1552 4.5286 -8.3088 5.8838 13.381 79.936 -52.074 66.757 -96.817 32.434 53.227 29.531 9.3423 26.211 -0.070058 -0.033608 -0.012928 -0 0 -0 -8.3088 5.8838 13.381 130.8 -86.538 103.19 -58.514 76.553 59.487 -4.3803 -12.336 -11.917 -0.026442 -0.026443 -0.00084227 -0 0 -0 
0.20953 0.56816 -0.23343 -0 0 -0 -8.3092 5.896 13.465 2.9497 -1.5357 0.17088 2.9497 -1.5357 0.17088 2.4773 -1.2906 0.13822 -0 0 -0 1.4749 -5.3531 13.326 -68.392 -53.433 -52.192 44.744 -25.802 -90.495 -0 0 -0 0.41327 -39.487 -11.139 36.327 -31.318 -5.2736 -44.684 -2.867 5.1023 -3.0698 -2.0823 4.4978 -3.0698 -2.0823 4.4978 -8.3092 5.896 13.465 79.871 -52.186 66.645 -96.762 32.424 53.231 29.45 9.2365 26.189 -0.049521 -0.015085 -0.006646 -0 0 -0 -8.3092 5.896 13.465 131.39 -86.55 103.77 -58.639 76.459 59.584 -4.3406 -12.339 -11.949 -0.026048 -0.035547 0.00054997 -0 0 -0 
0.20944 0.56818 -0.23345 -0 0 -0 -8.2911 5.9197 13.477 2.8922 -1.5214 0.22305 2.8922 -1.5214 0.22305 2.429 -1.2788 0.1822 -0 0 -0 1.6201 -5.6128 12.883 -65.776 -53.562 -49.846 44.334 -26.558 -89.296 -0 0 -0 0.69959 -38.994 -11.998 36.904 -31.545 -4.1522 -44.591 -2.9343 5.9596 -3.1585 -2.0245 4.5591 -3.1585 -2.0245 4.5591 -8.2911 5.9197 13.477 79.837 -52.157 66.574 -96.685 32.339 53.176 29.394 9.2383 26.118 -0.0054141 0.018324 -0.003358 -0 0 -0 -8.2911 5.9197 13.477 131.12 -86.489 103.58 -58.519 76.442 59.395 -4.333 -12.346 -11.956 -0.022159 -0.016722 0.0018267 -0 0 -0 
0.20929 0.56817 -0.23349 -0 0 -0 -8.2682 5.9102 13.408 3.1216 -1.6118 -0.019692 3.1216 -1.6118 -0.019695 2.622 -1.3539 -0.022445 -0 0 -0 1.3778 -5.4466 13.204 -64.517 -53.91 -47.126 43.963 -28.712 -84.039 -0 0 -0 1.1721 -39.022 -11.603 35.709 -30.845 -3.1357 -42.978 -3.8051 5.6028 -3.3029 -1.8461 4.895 -3.3029 -1.8461 4.895 -8.2682 5.9102 13.408 79.806 -51.986 66.52 -96.66 32.23 53.101 29.406 9.3255 26.04 0.045234 0.033045 0.0090152 -0 0 -0 -8.2682 5.9102 13.408 129.92 -86.416 102.48 -58.209 76.513 59.017 -4.3734 -12.338 -11.926 0.010447 0.0051224 -0.0023621 -0 0 -0 
0.20917 0.56813 -0.23351 -0 0 -0 -8.2752 5.8818 13.318 3.3352 -1.5797 -0.20432 3.3352 -1.5797 -0.20432 2.8018 -1.3262 -0.17781 -0 0 -0 1.0207 -5.1844 14.193 -66.692 -53.926 -48.381 44.608 -30.876 -81.572 -0 0 -0 1.3842 -39.479 -10.386 34.116 -29.923 -4.468 -40.917 -5.0987 4.2172 -3.2645 -1.8584 4.9448 -3.2645 -1.8584 4.9448 -8.2752 5.8818 13.318 79.873 -51.825 66.632 -96.696 32.245 53.08 29.456 9.4449 26.024 0.065797 0.028393 0.014255 -0 0 -0 -8.2752 5.8818 13.318 128.94 -86.388 101.53 -57.935 76.612 58.741 -4.4166 -12.33 -11.894 0.032758 0.030148 0.00013626 -0 0 -0 
0.20913 0.5681 -0.23348 -0 0 -0 -8.3327 5.8768 13.292 3.3102 -1.5604 -0.16655 3.3102 -1.5604 -0.16655 2.7807 -1.3101 -0.14596 -0 0 -0 0.91661 -4.7571 14.864 -68.032 -53.89 -49.73 44.282 -30.257 -81.922 -0 0 -0 0.96842 -39.657 -9.9956 33.98 -29.317 -6.2565 -38.711 -9.4628 2.2371 -3.0771 -1.7757 4.637 -3.0771 -1.7757 4.637 -8.3327 5.8768 13.292 80.017 -51.783 66.799 -96.783 32.308 53.096 29.529 9.5195 26.079 0.015234 0.01093 0.0094163 -0 0 -0 -8.3327 5.8768 13.292 129.41 -86.418 101.95 -57.907 76.688 58.766 -4.4229 -12.33 -11.87 0.022625 0.014908 -0.0014033 -0 0 -0 
0.20917 0.56808 -0.2334 -0 0 -0 -8.3566 5.8643 13.337 3.215 -1.6541 -0.043607 3.215 -1.6541 -0.043606 2.7006 -1.3893 -0.042868 -0 0 -0 1.0089 -4.5967 14.842 -67.71 -52.79 -49.954 44.727 -29.391 -82.559 -0 0 -0 0.28757 -39.501 -10.852 35.063 -29.822 -6.5493 -38.69 -10.189 1.5313 -2.9586 -1.5829 4.3491 -2.9586 -1.5829 4.3491 -8.3566 5.8643 13.337 80.056 -51.887 66.872 -96.851 32.416 53.159 29.534 9.4843 26.167 -0.066667 -0.015407 -0.010003 -0 0 -0 -8.3566 5.8643 13.337 130.24 -86.494 102.7 -58.159 76.67 59.084 -4.4028 -12.349 -11.888 -0.0040708 -6.4073e-05 -0.00038111 -0 0 -0 
0.20921 0.56809 -0.23332 -0 0 -0 -8.3186 5.8734 13.401 2.9893 -1.6701 0.13306 2.9893 -1.6701 0.13306 2.5106 -1.4034 0.10591 -0 0 -0 1.2983 -4.6738 14.227 -66.811 -52.521 -50.347 44.846 -28.19 -84.598 -0 0 -0 0.24412 -38.99 -11.958 37.117 -31.349 -6.2561 -40.718 -8.0599 3.4935 -2.8766 -1.5885 4.1735 -2.8766 -1.5885 4.1735 -8.3186 5.8734 13.401 79.934 -52.028 66.786 -96.823 32.474 53.189 29.451 9.363 26.2 -0.02483 -0.027359 -0.008795 -0 0 -0 -8.3186 5.8734 13.401 130.72 -86.542 103.15 -58.391 76.576 59.331 -4.378 -12.354 -11.911 -0.022014 -0.017631 0.0021213 -0 0 -0 
0.20919 0.56809 -0.23326 -0 0 -0 -8.2781 5.939 13.422 2.877 -1.582 0.2068 2.877 -1.582 0.2068 2.4162 -1.3296 0.16837 -0 0 -0 1.4473 -5.0613 13.379 -65.032 -53.231 -49.217 44.424 -26.706 -82.927 -0 0 -0 0.65132 -38.372 -12.917 38.327 -31.98 -4.7181 -42.792 -5.4894 5.6707 -2.9787 -1.6099 4.2478 -2.9787 -1.6099 4.2478 -8.2781 5.939 13.422 79.883 -52.072 66.736 -96.768 32.43 53.196 29.417 9.2844 26.152 0.019313 0.0042777 -0.005726 -0 0 -0 -8.2781 5.939 13.422 131.11 -86.482 103.55 -58.426 76.504 59.302 -4.3853 -12.348 -11.896 -0.0022037 -0.022445 -0.00039077 -0 0 -0 
0.2091 0.56809 -0.23324 -0 0 -0 -8.2288 5.9523 13.361 3.1216 -1.6059 -0.072286 3.1216 -1.6059 -0.072285 2.6222 -1.3487 -0.066599 -0 0 -0 0.8805 -4.9689 13.654 -63.753 -53.959 -46.789 43.755 -27.661 -78.836 -0 0 -0 1.2588 -38.39 -12.795 37.334 -31.074 -2.6645 -42.058 -4.4816 5.0198 -3.2857 -1.3477 4.7356 -3.2857 -1.3477 4.7356 -8.2288 5.9523 13.361 79.789 -51.949 66.616 -96.705 32.317 53.135 29.434 9.3225 26.061 0.022638 0.035097 -0.0021063 -0 0 -0 -8.2288 5.9523 13.361 130.27 -86.402 102.77 -58.297 76.52 59.1 -4.4042 -12.352 -11.859 0.019456 0.0037764 -0.0010869 -0 0 -0 
0.20901 0.56806 -0.23325 -0 0 -0 -8.2103 5.918 13.281 3.3838 -1.6347 -0.33648 3.3838 -1.6347 -0.33648 2.8429 -1.3719 -0.28913 -0 0 -0 0.33428 -4.7441 14.481 -66.019 -54.276 -48.19 44.561 -28.858 -77.318 -0 0 -0 1.5319 -38.878 -11.32 35.318 -29.936 -3.318 -40.61 -4.6394 3.4328 -3.326 -1.0987 4.9497 -3.326 -1.0987 4.9497 -8.2103 5.918 13.281 79.816 -51.792 66.623 -96.721 32.251 53.113 29.455 9.4325 26.011 0.059598 0.027779 0.0093583 -0 0 -0 -8.2103 5.918 13.281 129.45 -86.389 102.02 -58.17 76.604 58.977 -4.41 -12.355 -11.83 0.018724 0.010708 0.00158 -0 0 -0 
0.20897 0.56803 -0.23326 -0 0 -0 -8.2676 5.9232 13.268 3.4122 -1.631 -0.3596 3.4122 -1.631 -0.3596 2.8668 -1.3686 -0.30859 -0 0 -0 0.22893 -4.5401 15.053 -67.516 -54.296 -49.477 44.899 -28.876 -78.375 -0 0 -0 1.1285 -39.256 -10.109 34.82 -29.571 -5.5508 -38.899 -9.2978 1.7142 -3.1455 -0.93166 4.7039 -3.1455 -0.93166 4.7039 -8.2676 5.9232 13.268 79.996 -51.753 66.779 -96.789 32.254 53.099 29.512 9.5426 26.06 0.034692 -0.014017 0.0085947 -0 0 -0 -8.2676 5.9232 13.268 130.21 -86.417 102.75 -58.215 76.66 59.095 -4.4027 -12.369 -11.838 0.0023794 0.012553 -0.0071636 -0 0 -0 
0.20898 0.56803 -0.23324 -0 0 -0 -8.3066 5.9292 13.326 3.3302 -1.7268 -0.2402 3.3302 -1.7268 -0.2402 2.7977 -1.4496 -0.20851 -0 0 -0 0.26458 -4.4777 14.992 -66.895 -53.566 -49.331 45.657 -28.753 -81.023 -0 0 -0 0.33455 -39.16 -10.365 35.969 -30.447 -6.7208 -39.34 -10.435 1.7712 -3.0153 -0.75825 4.3671 -3.0153 -0.75825 4.3671 -8.3066 5.9292 13.326 80.092 -51.869 66.916 -96.861 32.351 53.173 29.564 9.5132 26.129 -0.031993 -0.033288 -0.011915 -0 0 -0 -8.3066 5.9292 13.326 131.24 -86.47 103.7 -58.434 76.639 59.377 -4.3888 -12.382 -11.886 -0.01962 -0.0023156 0.0013297 -0 0 -0 
